<?xml version="1.0" encoding="UTF-8"?><svg id="a" xmlns="http://www.w3.org/2000/svg" viewBox="0 0 27.47 18"><g><polygon points="17.87 2 19.24 0 8.51 0 9.87 2 17.87 2" style="fill:#03071e;"/><path d="M5.29,16c-1.66,0-3-1.34-3-3V5c0-1.66,1.34-3,3-3h2.16L6.08,0H3C1.34,0,0,1.34,0,3V15c0,1.66,1.34,3,3,3h3.91l1.37-2h-2.99Z" style="fill:#03071e;"/><path d="M24.47,0h-2.81l-1.37,2h1.89c1.66,0,3,1.34,3,3V13c0,1.66-1.34,3-3,3h-2.72l1.37,2h3.64c1.66,0,3-1.34,3-3V3c0-1.66-1.34-3-3-3Z" style="fill:#03071e;"/><polygon points="10.71 16 9.34 18 18.41 18 17.04 16 10.71 16" style="fill:#03071e;"/></g><line x1="10.98" y1="4.98" x2="16.65" y2="13.34" style="fill:none; stroke:#03071e; stroke-linecap:round; stroke-miterlimit:10; stroke-width:.75px;"/><line x1="16.9" y1="4.98" x2="11.15" y2="13.37" style="fill:none; stroke:#03071e; stroke-linecap:round; stroke-miterlimit:10; stroke-width:.75px;"/></svg>