<?xml version="1.0" encoding="UTF-8"?><svg id="a" xmlns="http://www.w3.org/2000/svg" viewBox="0 0 69.25 18"><g><path d="M36.89,15.24l-2.38-6.56v6.56h-2V3.24h2.14l2.26,6.18V3.24h2V15.24s-2.02,0-2.02,0Z" style="fill:#03071e;"/><path d="M44.91,15.24V3.24h2V15.24h-2Z" style="fill:#03071e;"/><path d="M59.07,15.24h-2.16l-1.82-5h-.18v5h-2V3.24h2v5h.18l1.8-4.92h2.16l-2.16,5.92,2.18,6Z" style="fill:#03071e;"/><path d="M67.66,11.52c0-.19-.08-.38-.24-.57s-.36-.37-.59-.52c-.23-.15-.49-.35-.76-.59-.28-.24-.53-.49-.76-.75s-.43-.6-.59-1.03c-.16-.43-.24-.9-.24-1.42v-1.4c0-.56,.16-1.03,.47-1.42s.69-.58,1.12-.58h1.59c.43,0,.81,.19,1.12,.58,.31,.39,.47,.86,.47,1.42v1.34h-1.59v-.86c0-.13-.04-.25-.12-.34s-.17-.14-.28-.14h-.79c-.11,0-.2,.05-.28,.14-.08,.09-.12,.21-.12,.34v.92c0,.33,.11,.64,.33,.93s.48,.55,.79,.78c.31,.23,.63,.48,.94,.74,.31,.26,.58,.6,.79,1.01s.33,.89,.33,1.42v1.72c0,.55-.16,1.02-.47,1.41s-.69,.59-1.12,.59h-1.59c-.43,0-.81-.2-1.12-.59-.31-.39-.47-.86-.47-1.41v-1.72h1.59v1.2c0,.15,.04,.27,.12,.37,.08,.1,.17,.15,.28,.15h.79c.11,0,.2-.05,.28-.15,.08-.1,.12-.22,.12-.37v-1.2h0Z" style="fill:#03071e;"/></g><g><polygon points="17.87 2 19.24 0 8.51 0 9.87 2 17.87 2" style="fill:#d8334a;"/><path d="M5.29,16c-1.66,0-3-1.34-3-3V5c0-1.66,1.34-3,3-3h2.16L6.08,0H3C1.34,0,0,1.34,0,3V15c0,1.66,1.34,3,3,3h3.91l1.37-2h-2.99Z" style="fill:#d8334a;"/><path d="M24.47,0h-2.81l-1.37,2h1.89c1.66,0,3,1.34,3,3V13c0,1.66-1.34,3-3,3h-2.72l1.37,2h3.64c1.66,0,3-1.34,3-3V3c0-1.66-1.34-3-3-3Z" style="fill:#d8334a;"/><polygon points="10.71 16 9.34 18 18.41 18 17.04 16 10.71 16" style="fill:#d8334a;"/></g><line x1="10.98" y1="4.98" x2="16.65" y2="13.34" style="fill:none; stroke:#03071e; stroke-linecap:round; stroke-miterlimit:10; stroke-width:.75px;"/><line x1="16.9" y1="4.98" x2="11.15" y2="13.37" style="fill:none; stroke:#03071e; stroke-linecap:round; stroke-miterlimit:10; stroke-width:.75px;"/></svg>