<?xml version="1.0" encoding="UTF-8"?><svg id="a" xmlns="http://www.w3.org/2000/svg" viewBox="0 0 299.07 64.18"><path d="M185.02,54.08l-8.39-23.12v23.12h-7.05V11.78h7.54l7.97,21.78V11.78h7.05V54.08h-7.12Z" style="fill:#03071e;"/><path d="M213.29,54.08V11.78h7.05V54.08h-7.05Z" style="fill:#03071e;"/><path d="M263.2,54.08h-7.61l-6.41-17.62h-.63v17.62h-7.05V11.78h7.05V29.41h.63l6.34-17.34h7.61l-7.61,20.87,7.68,21.15h0Z" style="fill:#03071e;"/><path d="M293.47,40.97c0-.67-.28-1.34-.85-2.01s-1.27-1.3-2.08-1.83c-.81-.53-1.73-1.23-2.68-2.08-.99-.85-1.87-1.73-2.68-2.64s-1.52-2.11-2.08-3.63-.85-3.17-.85-5v-4.93c0-1.97,.56-3.63,1.66-5s2.43-2.04,3.95-2.04h5.6c1.52,0,2.85,.67,3.95,2.04,1.09,1.37,1.66,3.03,1.66,5v4.72h-5.6v-3.03c0-.46-.14-.88-.42-1.2s-.6-.49-.99-.49h-2.78c-.39,0-.7,.18-.99,.49-.28,.32-.42,.74-.42,1.2v3.24c0,1.16,.39,2.26,1.16,3.28s1.69,1.94,2.78,2.75,2.22,1.69,3.31,2.61c1.09,.92,2.04,2.11,2.78,3.56s1.16,3.14,1.16,5v6.06c0,1.94-.56,3.6-1.66,4.97s-2.43,2.08-3.95,2.08h-5.6c-1.52,0-2.85-.7-3.95-2.08-1.09-1.37-1.66-3.03-1.66-4.97v-6.06h5.6v4.23c0,.53,.14,.95,.42,1.3s.6,.53,.99,.53h2.78c.39,0,.7-.18,.99-.53,.28-.35,.42-.78,.42-1.3v-4.23h.03Z" style="fill:#03071e;"/><polygon points="86.98 7.41 91.81 .36 53.99 .36 58.79 7.41 86.98 7.41" style="fill:#03071e;"/><path d="M18.65,56.76c-5.85,0-10.57-4.72-10.57-10.57V17.99c0-5.85,4.72-10.57,10.57-10.57h7.61L21.43,.36H10.57C4.72,.36,0,5.09,0,10.94V53.23c0,5.85,4.72,10.57,10.57,10.57h13.78l4.83-7.05h-10.53Z" style="fill:#03071e;"/><path d="M137.25,.36h-9.9l-4.83,7.05h6.66c5.85,0,10.57,4.72,10.57,10.57v28.2c0,5.85-4.72,10.57-10.57,10.57h-9.59l4.83,7.05h12.83c5.85,0,10.57-4.72,10.57-10.57V10.94c0-5.85-4.72-10.57-10.57-10.57h0Z" style="fill:#03071e;"/><polygon points="61.75 56.76 56.92 63.81 88.89 63.81 84.06 56.76 61.75 56.76" style="fill:#03071e;"/><path d="M34.18,14.93h3.93c.37,0,.6,.06,.71,.17,.1,.12,.15,.34,.15,.68v21.6h2c.23,.07,.42,.12,.55,.17s.2,.28,.2,.67v2.05c0,.37-.06,.61-.18,.72-.12,.12-.36,.17-.72,.17l-1.95,.05v1.8c0,.17,0,.32,.02,.47s.02,.31,.02,.47c.03,.4,.05,.67,.05,.8s.08,.28,.25,.45c.17,.17,.4,.29,.7,.38,.3,.08,.48,.14,.55,.18,.27,.1,.43,.21,.5,.32,.07,.12,.12,.26,.15,.43v1.25c0,.47-.06,.75-.17,.85-.12,.1-.38,.17-.78,.2h-9.25c-.43,0-.72-.05-.85-.15-.13-.1-.2-.35-.2-.75v-1.25c0-.3,.05-.49,.15-.58,.1-.08,.3-.16,.6-.22,.53-.1,.94-.22,1.23-.35,.28-.13,.48-.29,.6-.48,.12-.18,.18-.39,.18-.62s-.02-.52-.05-.85v-2.5h-8.25c-.43,0-.7-.03-.8-.1-.1-.07-.18-.28-.25-.65v-2.25l.25-.9c1-2.17,2-4.33,3-6.48s1.98-4.33,2.95-6.52c.67-1.47,1.31-2.92,1.92-4.35,.62-1.43,1.23-2.9,1.83-4.4,.17-.27,.32-.41,.45-.43s.3-.04,.5-.07v.02Zm-6.1,22.4h4.65v-5.8c0-1.4,.04-2.78,.12-4.15,.08-1.37,.16-2.75,.23-4.15l-5.75,13.2c-.03,.07-.07,.15-.1,.25s-.05,.2-.05,.3c0,.17,.08,.27,.25,.3s.38,.05,.65,.05Z" style="fill:#d7415e;"/><path d="M115.81,14.93h3.93c.37,0,.6,.06,.71,.17,.1,.12,.15,.34,.15,.68v21.6h2c.23,.07,.42,.12,.55,.17,.13,.05,.2,.28,.2,.67v2.05c0,.37-.06,.61-.18,.72-.12,.12-.36,.17-.72,.17l-1.95,.05v1.8c0,.17,0,.32,.02,.47s.02,.31,.02,.47c.03,.4,.05,.67,.05,.8s.08,.28,.25,.45c.17,.17,.4,.29,.7,.38,.3,.08,.48,.14,.55,.18,.27,.1,.43,.21,.5,.32,.07,.12,.12,.26,.15,.43v1.25c0,.47-.06,.75-.17,.85-.12,.1-.38,.17-.78,.2h-9.25c-.43,0-.72-.05-.85-.15-.13-.1-.2-.35-.2-.75v-1.25c0-.3,.05-.49,.15-.58,.1-.08,.3-.16,.6-.22,.53-.1,.94-.22,1.23-.35,.28-.13,.48-.29,.6-.48,.12-.18,.18-.39,.18-.62s-.02-.52-.05-.85v-2.5h-8.25c-.43,0-.7-.03-.8-.1-.1-.07-.18-.28-.25-.65v-2.25l.25-.9c1-2.17,2-4.33,3-6.48s1.98-4.33,2.95-6.52c.67-1.47,1.31-2.92,1.92-4.35,.62-1.43,1.23-2.9,1.83-4.4,.17-.27,.32-.41,.45-.43s.3-.04,.5-.07v.02Zm-6.1,22.4h4.65v-5.8c0-1.4,.04-2.78,.12-4.15,.08-1.37,.16-2.75,.23-4.15l-5.75,13.2c-.03,.07-.07,.15-.1,.25s-.05,.2-.05,.3c0,.17,.08,.27,.25,.3s.38,.05,.65,.05Z" style="fill:#d7415e;"/><g><path d="M69.51,21.88c0-5.3,1.26-7.95,3.77-7.95s3.73,2.65,3.73,7.95v8.89l6.25,5.86c.44-2.2,.65-4.76,.65-7.7,0-11.67-3.47-17.5-10.4-17.5-2.1,0-3.92,.48-5.45,1.45-1.78,1.15-3.12,3.06-4.01,5.74l5.46,5.12s0-1.86,0-1.86Z" style="fill:#03071e;"/><path d="M77.01,41.98c0,.9-.04,1.72-.13,2.47-.08,.75-.21,1.44-.38,2.08-.6,2.3-1.68,3.45-3.22,3.45h-.43c-.12,0-.26-.03-.43-.1-1.95-.6-2.92-3.23-2.92-7.9v-8.13l-6.28-5.89c-.35,2.03-.52,4.35-.52,6.97,0,4.07,.37,7.25,1.1,9.55,.37,1.23,.78,2.28,1.25,3.15,1.8,3.23,4.47,4.85,8,4.85h.45c4.25,0,7.19-2.21,8.83-6.6l-5.33-5v1.1h.01Z" style="fill:#03071e;"/></g><line x1="39.43" y1=".36" x2="107.08" y2="63.81" style="fill:none; stroke:#d7415e; stroke-miterlimit:10;"/></svg>