<?xml version="1.0" encoding="UTF-8"?><svg id="a" xmlns="http://www.w3.org/2000/svg" viewBox="0 0 126.58 18"><g><path d="M94.22,15.24l-2.38-6.56v6.56h-2V3.24h2.14l2.26,6.18V3.24h2V15.24h-2.02Z" style="fill:#03071e;"/><path d="M102.24,15.24V3.24h2V15.24h-2Z" style="fill:#03071e;"/><path d="M116.4,15.24h-2.16l-1.82-5h-.18v5h-2V3.24h2v5h.18l1.8-4.92h2.16l-2.16,5.92,2.18,6Z" style="fill:#03071e;"/><path d="M124.99,11.52c0-.19-.08-.38-.24-.57s-.36-.37-.59-.52c-.23-.15-.49-.35-.76-.59-.28-.24-.53-.49-.76-.75-.23-.26-.43-.6-.59-1.03-.16-.43-.24-.9-.24-1.42v-1.4c0-.56,.16-1.03,.47-1.42,.31-.39,.69-.58,1.12-.58h1.59c.43,0,.81,.19,1.12,.58,.31,.39,.47,.86,.47,1.42v1.34h-1.59v-.86c0-.13-.04-.25-.12-.34-.08-.09-.17-.14-.28-.14h-.79c-.11,0-.2,.05-.28,.14-.08,.09-.12,.21-.12,.34v.92c0,.33,.11,.64,.33,.93,.22,.29,.48,.55,.79,.78,.31,.23,.63,.48,.94,.74,.31,.26,.58,.6,.79,1.01s.33,.89,.33,1.42v1.72c0,.55-.16,1.02-.47,1.41-.31,.39-.69,.59-1.12,.59h-1.59c-.43,0-.81-.2-1.12-.59-.31-.39-.47-.86-.47-1.41v-1.72h1.59v1.2c0,.15,.04,.27,.12,.37,.08,.1,.17,.15,.28,.15h.79c.11,0,.2-.05,.28-.15,.08-.1,.12-.22,.12-.37v-1.2Z" style="fill:#03071e;"/></g><g><path d="M2,13.35H0V6.51c0-.38,.2-.71,.59-.97s.86-.4,1.41-.4h2c.55,0,1.02,.13,1.41,.4,.39,.26,.59,.59,.59,.97v6.85h-2v-2.74H2v2.74Zm2-4.11v-2.41c0-.09-.05-.17-.15-.23s-.22-.1-.35-.1h-1c-.13,0-.25,.03-.35,.1s-.15,.14-.15,.23v2.41h2Z" style="fill:#d8334a;"/><path d="M15.92,6.16h1.92c.56,0,1.03,.13,1.42,.4,.39,.27,.58,.59,.58,.97v3.41c0,.37-.19,.7-.58,.97s-.86,.4-1.42,.4h-1.92v1.04h-2v-1.04h-1.92c-.56,0-1.03-.13-1.42-.4s-.58-.59-.58-.97v-3.41c0-.37,.19-.7,.58-.97,.39-.27,.86-.4,1.42-.4h1.92v-1.03h2v1.03Zm-2,4.78v-3.41h-1.44c-.13,0-.25,.03-.34,.1-.09,.07-.14,.15-.14,.24v2.73c0,.09,.05,.17,.14,.24,.09,.07,.21,.1,.34,.1h1.44Zm2-3.41v3.41h1.44c.13,0,.25-.03,.34-.1,.09-.07,.14-.15,.14-.24v-2.73c0-.09-.05-.17-.14-.24-.09-.07-.21-.1-.34-.1h-1.44Z" style="fill:#d8334a;"/><path d="M23.9,13.35V5.14h2v4.23l2.26-4.23h2.14V13.35h-2v-4.49l-2.38,4.49h-2.02Z" style="fill:#d8334a;"/><path d="M34.3,13.35V5.14h2v6.85h1V5.14h2v6.85h1V5.14h2V13.35h-8Z" style="fill:#d8334a;"/><path d="M48.3,13.35h-2V6.51c0-.38,.2-.71,.59-.97,.39-.26,.86-.4,1.41-.4h2c.55,0,1.02,.13,1.41,.4,.39,.26,.59,.59,.59,.97v6.85h-2v-2.74h-2v2.74Zm2-4.11v-2.41c0-.09-.05-.17-.15-.23s-.22-.1-.35-.1h-1c-.13,0-.25,.03-.35,.1-.1,.06-.15,.14-.15,.23v2.41h2Z" style="fill:#d8334a;"/></g><g><polygon points="75.2 2 76.57 0 65.84 0 67.2 2 75.2 2" style="fill:#03071e;"/><path d="M62.62,16c-1.66,0-3-1.34-3-3V5c0-1.66,1.34-3,3-3h2.16l-1.37-2h-3.08c-1.66,0-3,1.34-3,3V15c0,1.66,1.34,3,3,3h3.91l1.37-2h-2.99Z" style="fill:#03071e;"/><path d="M81.8,0h-2.81l-1.37,2h1.89c1.66,0,3,1.34,3,3V13c0,1.66-1.34,3-3,3h-2.72l1.37,2h3.64c1.66,0,3-1.34,3-3V3c0-1.66-1.34-3-3-3Z" style="fill:#03071e;"/><polygon points="68.04 16 66.67 18 75.74 18 74.37 16 68.04 16" style="fill:#03071e;"/></g><line x1="68.31" y1="4.98" x2="73.98" y2="13.34" style="fill:#03071e; stroke:#03071e; stroke-linecap:round; stroke-miterlimit:10; stroke-width:.75px;"/><line x1="74.23" y1="4.98" x2="68.48" y2="13.37" style="fill:#03071e; stroke:#03071e; stroke-linecap:round; stroke-miterlimit:10; stroke-width:.75px;"/></svg>